<svg xmlns="http://www.w3.org/2000/svg" width="1000" height="913" viewBox="0 0 1000 913" version="1.1"><path d="M 424.500 95.174 C 413.551 96.019, 403.974 97.496, 390.347 100.440 C 386.413 101.291, 379.213 102.389, 374.347 102.882 C 364.377 103.892, 350.521 107.162, 345.740 109.634 C 343.989 110.540, 339.929 111.894, 336.718 112.643 C 333.507 113.392, 328.994 114.864, 326.690 115.914 C 320.619 118.679, 307.088 124, 306.125 124 C 304.867 124, 279.096 136.699, 274 139.831 C 271.525 141.351, 267.925 143.217, 266 143.977 C 257.004 147.529, 231.469 165.887, 228.932 170.627 C 228.178 172.036, 225.522 174.280, 223.031 175.613 C 214.258 180.308, 190.230 202.038, 185.315 209.721 C 183.458 212.624, 181.538 215, 181.048 215 C 178.879 215, 161.985 234.052, 152.182 247.553 C 146.594 255.248, 133 276.280, 133 277.229 C 133 277.632, 131.485 280.332, 129.633 283.231 C 123.320 293.109, 115.735 309.502, 110.539 324.500 C 109.586 327.250, 107.676 332.650, 106.294 336.500 C 104.019 342.840, 102.765 347.924, 97.541 372 C 96.646 376.125, 95.288 381.525, 94.523 384 C 92.455 390.696, 91.003 398.620, 90.980 403.326 C 90.970 405.622, 90.310 411.100, 89.515 415.500 C 87.833 424.812, 87.482 474.397, 88.989 490 C 90.697 507.701, 93.324 524.617, 95.510 532 C 98.222 541.159, 98.815 543.200, 101.031 551 C 104.068 561.688, 109.513 577.987, 111.134 581.236 C 111.610 582.191, 112 583.675, 112 584.533 C 112 587.131, 137.873 637.121, 142.519 643.500 C 143.721 645.150, 144.996 647.175, 145.352 648 C 145.708 648.825, 147.568 651.525, 149.485 654 C 152.664 658.104, 157.772 664.989, 163.814 673.313 C 165.086 675.066, 167.111 677.635, 168.314 679.023 C 169.516 680.411, 172.285 683.786, 174.467 686.523 C 178.960 692.159, 196.660 711.919, 201.382 716.571 C 207.885 722.977, 227.453 737.748, 233.755 741.007 C 236.095 742.217, 238.290 743.660, 238.632 744.213 C 239.810 746.119, 266.221 763, 268.025 763 C 269.247 763, 292.353 778.516, 293.891 780.368 C 294.636 781.266, 295.769 782, 296.410 782 C 297.051 782, 303.704 786.873, 311.195 792.829 C 318.686 798.785, 327.894 805.481, 331.657 807.708 C 349.399 818.207, 358.585 823.529, 359.500 823.840 C 363.809 825.303, 371.396 828.922, 379 833.141 C 383.491 835.633, 399.371 841.922, 406 843.834 C 413.385 845.964, 420.710 847.859, 426 849.008 C 431.251 850.148, 447.578 854.098, 455 856.025 C 456.925 856.525, 462.325 857.656, 467 858.538 C 471.675 859.421, 477.515 860.648, 479.978 861.265 C 486.146 862.811, 530.971 862.828, 537.500 861.287 C 540.250 860.637, 547.900 859.135, 554.500 857.947 C 561.100 856.760, 568.525 855.394, 571 854.913 C 573.475 854.432, 580 853.384, 585.500 852.584 C 610.153 849.001, 625.488 844.731, 629.030 840.464 C 630.889 838.224, 633.352 837.059, 639.766 835.389 C 646.202 833.712, 664.952 826.419, 676 821.295 C 680.125 819.381, 685.225 817.118, 687.333 816.266 C 721.582 802.419, 771.306 767.670, 791.487 743.478 C 794.230 740.190, 800.547 733, 805.525 727.500 C 827.014 703.756, 851.322 667.031, 857.940 648.307 C 859.652 643.463, 862.606 637.232, 864.503 634.460 C 866.401 631.688, 869.119 626.288, 870.543 622.460 C 874.580 611.607, 882.673 586.089, 884.009 580 C 884.673 576.975, 886.262 570.675, 887.539 566 C 890.289 555.937, 891.788 546.944, 895.953 515.500 C 897.902 500.795, 896.157 462.900, 892.975 450.782 C 890.293 440.570, 889.997 439.067, 889.947 435.384 C 889.888 431.013, 888.115 421.383, 885.181 409.500 C 884.094 405.100, 882.658 398.800, 881.989 395.500 C 880.417 387.745, 878.256 380.748, 875.506 374.500 C 874.296 371.750, 872.291 366.800, 871.051 363.500 C 867.484 354.008, 864.993 347.889, 862.504 342.500 C 861.234 339.750, 858.962 334.125, 857.454 330 C 855.947 325.875, 854.389 322.050, 853.992 321.500 C 853.595 320.950, 851.021 316.225, 848.272 311 C 838.594 292.602, 810.548 255.048, 793.338 237.441 C 790.127 234.157, 784.541 228.244, 780.925 224.302 C 777.309 220.360, 771.969 215.192, 769.058 212.818 C 766.147 210.443, 761.456 206.604, 758.633 204.287 C 750.213 197.375, 735.748 186.509, 732 184.279 C 727.650 181.692, 722.399 178.755, 714 174.212 C 710.425 172.278, 705.925 169.731, 704 168.552 C 697.952 164.848, 679.872 156.295, 670.500 152.705 C 665.550 150.810, 659.475 148.334, 657 147.204 C 651.358 144.627, 624.266 135.608, 614.120 132.927 C 609.929 131.820, 603.125 129.520, 599 127.816 C 594.875 126.111, 589.925 124.289, 588 123.765 C 586.075 123.242, 580 121.100, 574.500 119.006 C 569 116.911, 561.800 114.415, 558.500 113.458 C 555.200 112.502, 548.675 110.472, 544 108.947 C 535.433 106.153, 528.766 104.447, 515 101.525 C 510.875 100.650, 503.675 99.070, 499 98.015 C 491.347 96.287, 448.668 93.562, 438.500 94.152 C 436.850 94.247, 430.550 94.707, 424.500 95.174 M 354.615 179.135 C 350.124 180.909, 343.949 183.638, 335 187.801 C 333.075 188.697, 328.869 190.908, 325.654 192.715 C 322.439 194.522, 319.260 196, 318.591 196 C 315.652 196, 298.866 205.424, 292.179 210.829 C 290.156 212.464, 285.965 215.759, 282.867 218.151 C 264.807 232.094, 250.499 245.343, 240.914 257 C 237.974 260.575, 233.592 265.285, 231.175 267.467 C 228.759 269.648, 223.360 275.498, 219.178 280.467 C 214.996 285.435, 210.770 290.372, 209.787 291.439 C 208.804 292.505, 208 293.784, 208 294.281 C 208 294.778, 206.399 297.281, 204.443 299.843 C 195.594 311.430, 188.340 325.319, 187.034 333.179 C 186.160 338.434, 185.066 341.503, 180.424 351.723 C 179.119 354.596, 177.780 358.196, 177.448 359.723 C 177.116 361.251, 176.468 363.400, 176.009 364.500 C 168.256 383.054, 168.125 383.579, 164.944 409 C 163.011 424.453, 162.949 427.404, 163.962 455.500 C 165.259 491.482, 167.191 510.591, 170.381 519 C 171.320 521.475, 172.788 525.750, 173.643 528.500 C 174.499 531.250, 175.604 534.534, 176.099 535.797 C 176.595 537.060, 177 538.957, 177 540.012 C 177 542.178, 179.363 549.750, 181.678 555 C 187.086 567.264, 190.934 575.117, 197.440 587.167 C 199.123 590.284, 203.875 597.416, 208 603.015 C 212.125 608.614, 217.300 615.810, 219.500 619.006 C 225.248 627.356, 228.870 631.874, 233.993 637.083 C 236.472 639.604, 240.839 644.188, 243.698 647.269 C 259.960 664.795, 267.300 665.232, 255.960 648 C 245.861 632.653, 220 583.542, 220 579.711 C 220 578.953, 219.695 578.028, 219.322 577.656 C 218.697 577.030, 216.951 572.316, 212.598 559.500 C 211.664 556.750, 210.491 553.600, 209.991 552.500 C 208.204 548.563, 205.634 537.520, 204.056 527 C 203.603 523.975, 202.450 517.450, 201.495 512.500 C 199.738 503.391, 198.666 489.262, 197.409 458.657 L 196.718 441.815 193.359 436.931 C 189.003 430.599, 188.950 426.222, 193.119 417.228 C 194.835 413.528, 197.063 407.575, 198.072 404 C 199.080 400.425, 200.786 395.025, 201.862 392 C 202.938 388.975, 205.034 382.450, 206.521 377.500 C 208.007 372.550, 210.054 366.925, 211.069 365 C 212.084 363.075, 215.625 355.785, 218.937 348.799 C 227.050 331.685, 232.981 322.215, 243.341 309.834 C 250.386 301.413, 267.644 279.405, 271.546 273.863 C 273.721 270.775, 277.338 265.830, 279.584 262.875 C 287.375 252.623, 293.066 244.011, 294.940 239.641 C 296.087 236.964, 298.695 233.734, 301.615 231.374 C 304.251 229.243, 309.013 224.912, 312.197 221.750 C 315.382 218.588, 318.586 216, 319.319 216 C 320.052 216, 321.742 214.834, 323.076 213.409 C 324.409 211.984, 327.750 209.191, 330.500 207.203 C 333.250 205.214, 337.750 201.741, 340.500 199.485 C 343.250 197.228, 349.017 192.933, 353.316 189.941 C 357.615 186.948, 362.919 183.247, 365.104 181.716 C 371.966 176.907, 364.748 175.131, 354.615 179.135 M 672.002 253.250 C 672.004 253.938, 673.362 256.075, 675.020 258 C 676.678 259.925, 681.953 267.350, 686.742 274.500 C 691.531 281.650, 696.924 289.268, 698.725 291.430 C 700.526 293.591, 702 295.884, 702 296.525 C 702 297.166, 702.952 298.547, 704.116 299.595 C 705.280 300.643, 707.603 303.525, 709.278 306 C 710.952 308.475, 714.323 312.878, 716.768 315.785 C 719.214 318.692, 722.336 323.417, 723.708 326.285 C 725.079 329.153, 727.256 332.899, 728.545 334.610 C 729.833 336.320, 732.279 340.595, 733.979 344.110 C 739.822 356.186, 740.504 357.366, 741.899 357.816 C 745.842 359.085, 734.231 326.472, 726.121 313.500 C 724.746 311.300, 722.411 307.025, 720.932 304 C 719.453 300.975, 716.388 296.037, 714.122 293.027 C 711.855 290.017, 710 287.200, 710 286.768 C 710 286.336, 707.638 283.326, 704.750 280.079 C 701.862 276.832, 698.150 272.605, 696.500 270.685 C 689.340 262.354, 671.996 250.011, 672.002 253.250 M 782 275.071 C 782 275.912, 782.386 277.028, 782.858 277.550 C 783.330 278.072, 785.522 281.875, 787.729 286 C 789.937 290.125, 792.701 295.201, 793.871 297.280 C 795.042 299.360, 796 301.439, 796 301.900 C 796 302.362, 798.864 308.761, 802.365 316.120 C 812.169 336.731, 814.083 341.065, 816.001 347 C 816.979 350.025, 819.351 356.325, 821.272 361 C 823.193 365.675, 825.747 372.425, 826.948 376 C 828.149 379.575, 829.498 383.400, 829.947 384.500 C 832.711 391.273, 836 400.758, 836 401.954 C 836 403.338, 836.808 406.151, 839.748 415 C 840.570 417.475, 842.763 422.538, 844.622 426.251 C 846.480 429.964, 848 433.683, 848 434.515 C 848 435.347, 848.415 436.809, 848.921 437.764 C 849.428 438.719, 851.336 444, 853.163 449.500 L 856.483 459.500 856.804 483.573 C 857.063 502.928, 856.813 508.993, 855.532 514.518 C 854.655 518.298, 853.492 525.739, 852.947 531.053 C 852.401 536.367, 851.270 543.817, 850.432 547.608 C 849.594 551.399, 848.480 557.627, 847.957 561.449 C 847.433 565.271, 845.163 574.946, 842.912 582.949 C 840.661 590.952, 838.180 599.975, 837.398 603 C 836.616 606.025, 834.452 612.325, 832.590 617 C 830.728 621.675, 828.223 629.100, 827.023 633.500 C 825.823 637.900, 823.539 643.544, 821.949 646.043 C 820.359 648.541, 818.394 652.465, 817.584 654.763 C 816.773 657.061, 814.317 661.316, 812.125 664.220 C 809.934 667.124, 807.246 671.588, 806.153 674.140 C 805.060 676.692, 803.631 679.110, 802.979 679.513 C 799.295 681.790, 795.898 700.583, 798.842 702.402 C 799.973 703.101, 805.128 697.546, 808.495 692 C 809.998 689.525, 813.150 685.475, 815.500 683 C 817.850 680.525, 821.012 676.496, 822.528 674.046 C 824.043 671.596, 828.041 666.421, 831.412 662.546 C 836.855 656.288, 842.189 649.561, 852.659 635.749 C 854.396 633.457, 856.390 629.764, 857.089 627.541 C 857.789 625.318, 859.385 621.415, 860.638 618.867 C 862.717 614.637, 872.943 584.789, 876.009 574 C 876.713 571.525, 877.841 567.700, 878.517 565.500 C 881.749 554.977, 883.999 540.572, 884.003 530.385 C 884.004 526.048, 884.497 518.495, 885.097 513.601 C 886.894 498.950, 883.428 475.349, 878.033 465.500 C 874.371 458.812, 873.280 455.082, 872.042 445 C 871.467 440.325, 870.563 434.025, 870.033 431 C 869.503 427.975, 868.587 421.450, 867.998 416.500 C 866.078 400.374, 862.015 389.150, 850.985 369.500 C 849.133 366.200, 846.691 361.697, 845.559 359.494 C 844.426 357.291, 842.523 354.121, 841.328 352.450 C 840.134 350.779, 838.067 346.956, 836.734 343.956 C 835.402 340.955, 832.400 335.800, 830.063 332.500 C 827.725 329.200, 825.449 325.600, 825.004 324.500 C 824.560 323.400, 821.227 319.052, 817.598 314.837 C 813.969 310.622, 811 306.876, 811 306.512 C 811 306.149, 808.554 302.622, 805.565 298.675 C 798.931 289.917, 782 272.957, 782 275.071 M 744 362.718 C 744 365.604, 745.005 368, 746.215 368 C 746.806 368, 746.938 366.871, 746.538 365.250 C 745.634 361.592, 744 359.962, 744 362.718 M 788.428 387.328 C 787.752 389.089, 789.522 393.642, 792.650 398.190 C 794.906 401.469, 795.284 403.360, 796.053 415.190 C 798.252 449.045, 798.967 456.834, 800.110 459.341 L 801.336 462.033 803.583 459.922 L 805.829 457.812 807.058 460.109 C 808.956 463.654, 807.448 501.583, 804.963 512.820 C 803.907 517.594, 803.034 523.436, 803.022 525.803 C 802.994 531.390, 800.238 543.539, 797.987 548 C 797.016 549.925, 795.655 555.100, 794.963 559.500 C 793.732 567.331, 792.013 572.712, 787.800 581.919 C 786.647 584.439, 785.121 588.525, 784.409 591 C 781.275 601.890, 772.862 620.558, 769.546 623.979 C 767.669 625.916, 765.517 629.300, 764.764 631.500 C 764.011 633.700, 761.619 638.151, 759.448 641.392 C 757.276 644.633, 754.150 649.423, 752.500 652.037 C 746.269 661.909, 741.871 668.195, 738.944 671.411 C 737.281 673.239, 734.665 676.707, 733.131 679.118 C 729.574 684.705, 727.678 686.234, 724.805 685.827 C 720.879 685.270, 722.587 673.187, 727.306 668.138 C 728.662 666.687, 730.566 663.925, 731.536 662 C 732.507 660.075, 734.845 656.475, 736.732 654 C 739.771 650.013, 740.085 649.044, 739.485 645.500 C 738.472 639.514, 738.536 628.211, 739.618 622 C 741.970 608.494, 739.442 603.838, 734.747 613.032 C 733.234 615.997, 730.720 620.015, 729.161 621.961 C 727.603 623.908, 725.115 627.678, 723.633 630.340 C 722.151 633.002, 719.594 636.312, 717.950 637.696 C 716.306 639.079, 713.764 642.301, 712.301 644.855 C 705.990 655.875, 689.762 675.057, 679.608 683.500 C 676.962 685.700, 672.481 689.541, 669.649 692.036 C 661.773 698.974, 650.056 707.654, 633 719.187 C 611.079 734.010, 612.443 733.314, 587.191 742.555 C 582.071 744.429, 576.221 746.691, 574.191 747.583 C 567.622 750.468, 566.603 750.812, 559.500 752.546 C 555.650 753.485, 543.275 757.279, 532 760.977 C 503.791 770.227, 495.240 772.790, 490 773.566 C 483.865 774.474, 481.815 775.703, 482.189 778.250 C 482.742 782.016, 486.772 782.350, 532.500 782.426 C 587.304 782.518, 598.614 781.430, 615.500 774.440 C 619.900 772.619, 626.875 769.931, 631 768.467 C 635.125 767.004, 639.857 765.204, 641.515 764.468 C 643.173 763.732, 645.672 762.695, 647.067 762.165 C 648.462 761.634, 653.105 759.130, 657.385 756.600 C 661.664 754.070, 665.362 752, 665.603 752 C 665.843 752, 667.943 750.797, 670.270 749.326 C 672.596 747.856, 677.366 745.131, 680.870 743.271 C 707.538 729.110, 727.336 712.803, 746 689.626 C 749.025 685.870, 754.804 679.130, 758.843 674.648 C 762.882 670.167, 767.204 664.925, 768.448 662.999 C 769.693 661.074, 773.673 656.898, 777.293 653.719 C 783.754 648.047, 792.481 637.475, 794.009 633.468 C 794.436 632.351, 795.712 629.426, 796.845 626.968 C 800.998 617.965, 803.715 610.507, 806.669 600 C 809.554 589.738, 810.092 587.507, 811.010 582 C 811.514 578.975, 812.605 573.010, 813.434 568.744 C 814.263 564.478, 815.377 556.378, 815.910 550.744 C 816.444 545.110, 817.561 537.125, 818.393 533 C 824.451 502.967, 824.425 499.732, 817.599 433.500 C 816.947 427.171, 813.328 408.350, 812.476 406.856 C 810.098 402.687, 807.539 400.942, 804.712 401.563 C 800.834 402.415, 797.178 398.966, 796.329 393.656 C 795.392 387.795, 789.928 383.419, 788.428 387.328 M 881 452.500 C 881 457.084, 881.267 458.133, 882.198 457.202 C 883.668 455.732, 883.598 449.198, 882.096 447.696 C 881.301 446.901, 881 448.222, 881 452.500 M 359.500 794.653 C 350.035 797.315, 355.619 806.095, 373.312 816.370 C 388.537 825.211, 392.201 826.721, 401.115 827.827 C 405.287 828.345, 409.638 829.271, 410.784 829.884 C 413.343 831.254, 420.047 831.286, 425.811 829.957 C 431.986 828.532, 441.708 830.459, 452.296 835.205 C 464.243 840.560, 471.217 841.655, 501.500 842.931 C 549.953 844.973, 559.002 844.407, 581.566 837.920 C 587.103 836.328, 595.751 834.181, 600.784 833.149 C 614.451 830.346, 618.079 826.921, 614.571 820.137 C 611.953 815.074, 610.798 814.870, 591.798 816.110 C 580.191 816.868, 562.162 816.988, 537 816.477 C 491.600 815.555, 460.410 815.393, 445 816.002 L 433.500 816.455 420.500 809.628 C 413.350 805.874, 406.594 801.968, 405.488 800.950 C 399.749 795.669, 370.247 791.629, 359.500 794.653" stroke="none" fill="#fbddeb" fill-rule="evenodd"/></svg>