<svg xmlns="http://www.w3.org/2000/svg" width="800" height="783" viewBox="0 0 800 783" version="1.1"><path d="M 382.529 57.183 C 375.945 57.677, 364.920 59.233, 358.029 60.640 C 351.138 62.047, 341.424 64.030, 336.443 65.045 C 331.462 66.061, 325.387 67.544, 322.943 68.340 C 320.499 69.136, 314.450 71, 309.500 72.482 C 239.085 93.563, 170.933 150.315, 131.146 221 C 127.873 226.815, 115.180 252.705, 114.477 255 C 114.055 256.375, 112.497 259.975, 111.014 263 C 109.530 266.025, 107.765 270.525, 107.090 273 C 106.416 275.475, 104.941 280.200, 103.814 283.500 C 101.176 291.223, 99.927 296.384, 99.320 302.058 L 98.833 306.616 100.525 308.020 L 102.216 309.425 103.571 307.572 C 104.316 306.553, 105.667 302.390, 106.572 298.320 C 107.477 294.251, 109.674 287.452, 111.453 283.211 C 113.233 278.970, 114.995 274.251, 115.370 272.725 C 115.744 271.198, 117.677 268.149, 119.665 265.949 C 123.427 261.785, 124.892 259.484, 130.108 249.547 C 131.827 246.274, 135.250 241.635, 137.714 239.240 L 142.195 234.885 141.489 239.066 C 141.100 241.366, 137.376 250.055, 133.213 258.374 C 129.050 266.693, 124.866 276.425, 123.915 280 C 122.964 283.575, 120.877 289.425, 119.276 293 C 117.675 296.575, 115.761 302.762, 115.023 306.748 L 113.680 313.997 114.974 319.393 L 116.269 324.790 115.134 328.044 C 113.575 332.517, 113.745 345.961, 115.475 355 C 118.178 369.126, 119.984 377.503, 121.404 382.500 C 122.185 385.250, 123.736 392.822, 124.852 399.326 C 126.890 411.203, 128.397 415.003, 130.310 413.090 C 130.907 412.493, 131.345 402.952, 131.403 389.297 L 131.500 366.500 133.135 362 C 134.034 359.525, 136.195 352.100, 137.937 345.500 C 139.679 338.900, 142.597 329.900, 144.421 325.500 C 147.521 318.026, 151.089 308.818, 156.434 294.500 C 157.666 291.200, 160.098 286.274, 161.837 283.554 C 163.577 280.834, 165 278.083, 165 277.442 C 165 276.800, 166.332 274.599, 167.960 272.550 C 169.589 270.501, 171.224 267.851, 171.595 266.662 C 171.966 265.473, 173.948 262.475, 176 260 C 178.052 257.525, 180.659 253.670, 181.793 251.433 C 182.926 249.196, 184.600 246.747, 185.511 245.991 C 186.423 245.234, 188.442 242.764, 189.998 240.503 C 193.254 235.770, 203.776 226.442, 204.754 227.421 C 205.534 228.200, 203.742 231.702, 194.909 246.658 C 180.674 270.761, 167.858 299.702, 163.095 318.500 C 156.218 345.641, 155.676 350.584, 155.582 387 L 155.500 418.500 156.872 426 C 157.627 430.125, 159.104 436.522, 160.154 440.216 C 161.205 443.910, 162.922 450.286, 163.971 454.385 C 165.019 458.484, 166.839 463.725, 168.016 466.031 C 169.192 468.337, 170.994 472.852, 172.021 476.066 C 173.048 479.279, 174.780 483.616, 175.870 485.704 C 176.961 487.792, 180.322 494.483, 183.340 500.574 C 189.879 513.772, 201.748 532.245, 208.870 540.308 C 211.691 543.503, 214 546.443, 214 546.842 C 214 547.784, 230.252 564.291, 241.065 574.333 C 253.997 586.343, 260.831 591.913, 271.329 599 C 280.809 605.400, 283.174 607.780, 278.750 606.467 C 274.616 605.240, 256.614 595.853, 253.712 593.411 C 252.136 592.085, 250.276 591, 249.578 591 C 248.881 591, 247.453 590.035, 246.405 588.855 C 243.429 585.504, 236.529 582.810, 232.742 583.521 C 227.116 584.576, 214.925 576.879, 207.452 567.554 C 205.829 565.527, 202.849 562.117, 200.830 559.976 C 198.812 557.834, 196.892 555.236, 196.564 554.201 C 196.235 553.167, 194.811 551.702, 193.398 550.945 C 191.985 550.189, 190.224 548.430, 189.483 547.035 C 188.743 545.641, 185.366 541.575, 181.978 538 C 174.744 530.364, 169.163 522.310, 165.385 514.051 C 164.517 512.154, 162.382 508.329, 160.640 505.551 C 158.899 502.773, 156.239 496.675, 154.730 492 C 151.710 482.643, 148.427 476.269, 145.778 474.618 L 144.055 473.545 142.913 474.687 L 141.772 475.828 142.822 481.164 C 145.405 494.288, 149.051 505.902, 151.526 508.887 C 152.717 510.324, 154.837 513.803, 156.238 516.617 C 159.166 522.502, 164.210 530.027, 169.371 536.209 C 171.342 538.569, 175.213 543.200, 177.975 546.500 C 185.954 556.033, 194.801 567.715, 196.437 570.879 C 197.265 572.479, 199.213 575.073, 200.767 576.644 C 202.586 578.482, 204.080 581.554, 204.960 585.266 L 206.327 591.032 210.995 595.266 C 219.358 602.853, 236.723 615.143, 240.996 616.499 C 242.170 616.871, 244.592 618.459, 246.378 620.027 C 250.394 623.553, 261.750 628.581, 277.500 633.807 C 293.687 639.179, 296.003 639.745, 307 641.026 C 312.553 641.673, 319.616 643.311, 324 644.969 C 328.125 646.529, 336 648.521, 341.500 649.395 C 347 650.268, 354.875 651.702, 359 652.580 L 366.500 654.177 395 654.827 C 450.115 656.086, 446.939 656.368, 489.500 646.441 C 492.800 645.671, 496.850 645.032, 498.500 645.020 C 500.150 645.009, 503.867 644.099, 506.761 642.999 C 513.627 640.390, 514.636 640.469, 516.203 643.738 C 517.930 647.341, 520.148 647.637, 523.545 644.715 C 526.705 641.997, 526.265 640.437, 522.082 639.518 C 520.125 639.088, 518.989 638.091, 518.575 636.441 L 517.962 634 512.731 634.044 C 509.854 634.068, 505.700 634.736, 503.500 635.529 C 501.300 636.321, 498.578 636.977, 497.451 636.985 C 496.323 636.993, 491.148 638.342, 485.951 639.982 C 476.667 642.912, 465 644.075, 465 642.071 C 465 641.560, 467.452 640.429, 470.449 639.558 C 473.446 638.687, 476.154 637.559, 476.468 637.052 C 477.112 636.010, 484.699 633.732, 493.242 632.015 C 496.627 631.335, 499.505 630.118, 500.253 629.049 C 500.951 628.052, 504.494 625.889, 508.126 624.242 C 511.757 622.596, 515.017 620.781, 515.371 620.209 C 515.724 619.638, 519.062 618.005, 522.788 616.581 C 526.514 615.157, 533.012 611.631, 537.228 608.746 C 541.443 605.861, 548.854 600.827, 553.696 597.560 C 558.538 594.292, 564.402 589.905, 566.728 587.810 C 569.053 585.714, 571.354 584, 571.841 584 C 572.328 584, 575.672 581.862, 579.271 579.250 C 582.871 576.637, 588.391 572.700, 591.539 570.500 C 605.917 560.450, 627.509 540.415, 632.599 532.400 C 633.612 530.805, 636.142 527.209, 638.220 524.409 C 640.299 521.609, 642 518.938, 642 518.474 C 642 518.009, 642.870 516.700, 643.934 515.564 C 645.774 513.599, 650.992 504.085, 658.893 488.289 C 660.877 484.322, 662.809 481.060, 663.187 481.039 C 665.484 480.909, 658.058 504.972, 651.923 517.535 C 649.766 521.954, 648 526.029, 648 526.591 C 648 527.912, 631.232 553.486, 625.913 560.277 C 620.066 567.741, 603.718 585.286, 587.782 601.199 C 578.827 610.142, 573.855 615.871, 573.463 617.699 C 572.389 622.701, 571.317 624.485, 567.376 627.825 C 562.420 632.026, 541.886 645.699, 537.696 647.589 C 535.938 648.381, 533.825 649.467, 533 650.001 C 529.746 652.109, 519.912 655.965, 508 659.805 L 495.500 663.834 487.246 664.386 C 482.707 664.690, 475.282 666.036, 470.746 667.377 L 462.500 669.817 445 671.048 C 388.652 675.013, 339.641 671.120, 313 660.565 C 308.325 658.712, 301.125 656.657, 297 655.998 C 287.048 654.407, 279.100 651.481, 267 644.955 C 265.075 643.917, 261.025 641.884, 258 640.438 C 251.140 637.158, 241.500 631.368, 237.347 628.033 C 235.612 626.640, 228.917 621.450, 222.468 616.500 C 210.048 606.966, 184.005 581.844, 181.480 576.962 C 180.655 575.365, 179.126 573.603, 178.083 573.045 C 176.049 571.956, 165 556.747, 165 555.035 C 165 554.469, 163.506 552.317, 161.679 550.253 C 158.148 546.262, 151.337 534.812, 149.036 529 C 148.274 527.075, 146.188 523.250, 144.400 520.500 C 142.612 517.750, 140.159 512.800, 138.949 509.500 C 137.739 506.200, 135.939 502.600, 134.950 501.500 C 133.961 500.400, 132.026 496.498, 130.650 492.828 C 129.274 489.158, 127.468 485.108, 126.638 483.828 C 125.156 481.545, 120.246 468.622, 115.397 454.240 C 114.051 450.247, 111.861 445.031, 110.531 442.649 C 109.202 440.267, 107.480 435.577, 106.706 432.227 L 105.299 426.134 101.022 421.026 C 98.394 417.888, 96.082 416.030, 95.026 416.209 C 94.081 416.369, 92.529 415.854, 91.577 415.064 L 89.848 413.629 88.884 415.064 C 86.741 418.258, 90.947 438.557, 94.862 443.919 L 97.359 447.338 98.234 456.919 C 99.726 473.254, 101.138 480.001, 106.207 495 C 111.420 510.427, 113.184 516.878, 114.820 526.500 C 115.789 532.201, 121.876 544.675, 126.774 551 C 127.839 552.375, 129.482 555.001, 130.426 556.837 C 132.135 560.161, 139.173 570.595, 144.084 577.085 C 145.506 578.963, 150.006 584.917, 154.084 590.316 C 158.163 595.715, 163.193 602.338, 165.261 605.035 C 170.331 611.641, 190.184 631.482, 197 636.754 C 200.025 639.093, 206.446 644.147, 211.269 647.985 C 221 655.728, 228.776 661.082, 236.422 665.303 C 239.215 666.845, 243.178 669.207, 245.229 670.553 C 247.279 671.899, 249.213 673, 249.527 673 C 249.840 673, 252.437 674.485, 255.298 676.299 C 264.473 682.117, 275.271 687.629, 284 690.949 C 288.675 692.727, 293.850 694.758, 295.500 695.461 C 297.150 696.165, 300.300 697.245, 302.500 697.861 C 304.700 698.477, 310.100 700.090, 314.500 701.444 C 318.900 702.798, 327.675 704.830, 334 705.959 C 340.325 707.088, 350.225 708.878, 356 709.935 C 383.514 714.975, 419.982 715.430, 443.500 711.028 C 446.250 710.513, 451.313 709.621, 454.750 709.046 C 469.704 706.544, 473.982 705.654, 482 703.379 C 486.675 702.053, 492.300 700.464, 494.500 699.849 C 504.109 697.160, 505.865 696.567, 512.397 693.799 C 516.190 692.192, 521.365 690.176, 523.897 689.320 C 526.429 688.464, 529.625 686.969, 531 685.999 C 532.375 685.029, 536.425 682.829, 540 681.112 C 548.919 676.826, 555.612 673.017, 562.802 668.134 C 566.151 665.860, 569.280 664, 569.757 664 C 570.233 664, 571.495 663.203, 572.561 662.230 C 573.628 661.256, 578.325 657.814, 583 654.581 C 587.675 651.348, 593.750 646.846, 596.500 644.578 C 599.250 642.309, 603.212 639.185, 605.303 637.635 C 618.327 627.985, 657 583.722, 657 578.467 C 657 578.245, 658.929 575.011, 661.287 571.281 C 663.644 567.552, 667.764 560, 670.442 554.500 C 673.120 549, 676.371 542.405, 677.666 539.844 C 678.962 537.284, 680.650 533.459, 681.416 531.344 C 682.183 529.230, 683.846 525.250, 685.111 522.500 C 695.563 499.781, 704.274 459.078, 707.475 418 C 708.093 410.074, 708.829 403.484, 711.717 380 C 712.881 370.535, 713.434 359.876, 713.311 349.303 L 713.121 333.105 708.965 307.803 C 704.573 281.066, 703.921 278.086, 699.164 263 C 695.394 251.043, 686.544 231.834, 674.745 210 C 670.001 201.220, 657.846 182.883, 648.641 170.618 C 643.266 163.457, 616.794 135.929, 609.500 129.915 C 602.564 124.197, 589.107 114.259, 583.997 111.082 C 580.974 109.203, 576.158 106.154, 573.295 104.309 C 560.201 95.866, 527.127 80.251, 508.500 73.716 C 463.010 57.757, 430.943 53.548, 382.529 57.183 M 159.802 242.750 C 156.875 246.146, 150.350 256.543, 148.978 260 C 148.213 261.925, 145.965 266.027, 143.981 269.115 C 141.998 272.204, 139.540 276.929, 138.519 279.615 C 137.498 282.302, 135.909 285.851, 134.987 287.503 C 134.065 289.155, 132.815 292.755, 132.208 295.503 C 131.602 298.251, 129.732 306.220, 128.053 313.212 C 123.112 333.786, 124.245 343.369, 129.419 324.763 C 130.984 319.132, 132.852 313.620, 133.570 312.513 C 135.157 310.066, 137.570 302.790, 138.409 297.924 C 139.177 293.469, 148.357 275.391, 151.605 271.937 C 154.576 268.778, 163 248.133, 163 244.011 C 163 240.597, 161.998 240.201, 159.802 242.750 M 125.682 340.652 C 124.464 341.869, 124.961 345.723, 126.500 347 L 128 348.245 127.985 345.372 C 127.968 342.161, 126.723 339.610, 125.682 340.652 M 106.475 466.609 C 106.864 470.243, 108.098 475.756, 109.216 478.859 C 113.907 491.872, 115 495.436, 115 497.722 C 115 499.049, 117.025 504.325, 119.500 509.447 C 121.975 514.569, 124 519.387, 124 520.152 C 124 520.918, 125.343 523.173, 126.984 525.164 C 128.625 527.155, 130.388 529.891, 130.902 531.244 C 132.077 534.333, 139.609 540.442, 140.489 539.018 C 140.839 538.451, 139.237 534.052, 136.928 529.243 C 134.619 524.434, 131.926 518.171, 130.944 515.323 C 129.208 510.290, 127.617 506.702, 119.273 489 C 117.069 484.325, 114.932 478.977, 114.524 477.115 C 113.756 473.611, 107.205 460, 106.287 460 C 106.001 460, 106.085 462.974, 106.475 466.609 M 561.655 619.829 C 559.498 622.212, 559.566 623, 561.929 623 C 563.936 623, 567 620.540, 567 618.929 C 567 617.314, 563.379 617.924, 561.655 619.829 M 550.102 627.586 C 547.879 629.165, 547.285 630, 548.384 630 C 550.963 630, 557 627.233, 557 626.051 C 557 624.296, 553.697 625.031, 550.102 627.586 M 534.543 634.931 C 533.524 636.579, 535.417 636.843, 538.500 635.485 L 541.500 634.162 538.309 634.081 C 536.554 634.037, 534.859 634.419, 534.543 634.931" stroke="none" fill="#c6ebeb" fill-rule="evenodd"/></svg>