<svg xmlns="http://www.w3.org/2000/svg" width="800" height="815" viewBox="0 0 800 815" version="1.1"><path d="M 357.500 35.619 C 290.935 42.401, 237.604 65.153, 178.641 111.924 C 159.795 126.872, 132.886 154.358, 128.881 162.749 L 125.818 169.166 128.037 175.100 C 131.314 183.862, 130.579 187.081, 121.327 204.500 C 112.753 220.640, 111.694 222.349, 100.898 237.432 C 65.753 286.541, 42.787 352.311, 41.340 408 C 37.320 562.751, 112.987 681.097, 249.500 733.569 C 253.350 735.048, 258.300 737.061, 260.500 738.041 C 284.910 748.912, 298.467 751.571, 298.532 745.500 L 298.564 742.500 306.532 741.940 C 310.914 741.632, 316.133 740.636, 318.129 739.727 C 321.259 738.301, 323.044 738.218, 331.103 739.117 C 342.317 740.369, 345.045 739.925, 349.943 736.045 C 352.002 734.414, 357.245 731.800, 361.594 730.237 C 368.230 727.850, 369.767 726.867, 371.162 724.118 C 373.369 719.769, 372.664 720.147, 381.604 718.531 C 390.905 716.850, 407.965 712.510, 413.150 710.507 C 415.157 709.731, 420.782 708.398, 425.650 707.544 C 430.517 706.690, 436.709 705.318, 439.409 704.495 C 442.109 703.673, 446.577 703, 449.338 703 C 455.727 703, 476.571 696.468, 479.887 693.427 C 484.234 689.440, 478.224 687.922, 469.839 690.890 C 462.371 693.533, 454.270 695.285, 453.038 694.524 C 450.043 692.672, 453.108 691.096, 466.571 687.562 C 475.205 685.295, 497.056 677.594, 513.474 671.030 C 522.880 667.270, 558.817 649.462, 561.037 647.461 C 565.048 643.845, 579 641.165, 579 644.011 C 579 645.278, 554.136 670.175, 543.714 679.344 C 538.115 684.269, 535.098 687.844, 532.953 692.093 C 530.031 697.882, 524.208 703.137, 515.156 708.154 C 511.710 710.064, 508.530 714.430, 509.473 715.956 C 511.309 718.927, 520.671 715.807, 530.948 708.800 C 535.102 705.968, 543.719 700.661, 550.098 697.007 C 598.861 669.072, 646.863 611.669, 670.607 552.897 C 679.324 531.321, 685.133 516.481, 687.987 508.500 C 689.561 504.100, 693.380 493.525, 696.474 485 C 717.665 426.608, 724.907 371.355, 717.538 324.278 C 716.782 319.450, 715.854 312.575, 715.475 309 C 708.702 245.093, 666.558 169.143, 609.057 117.217 C 544.497 58.916, 445.145 26.689, 357.500 35.619 M 126.093 318.250 C 106.095 359.727, 95.591 435.930, 107.891 450.305 C 111.024 453.966, 113.450 458.101, 121.483 473.473 C 132.739 495.012, 142 503.544, 142 492.375 C 142 491.141, 139.748 482.277, 136.995 472.676 C 120.321 414.529, 119.187 373.360, 132.551 311.250 C 133.923 304.870, 131.035 308.001, 126.093 318.250 M 641.085 433.498 C 639.907 439.822, 637.614 449.061, 635.990 454.029 C 634.367 458.997, 632.315 465.860, 631.431 469.281 C 629.547 476.566, 621.999 496.023, 617.877 504.221 C 612.780 514.358, 614.681 516.307, 620.828 507.250 C 636.962 483.480, 646 457.943, 646 436.124 C 646 417.999, 644.157 417.014, 641.085 433.498 M 206 637.464 C 206 638.269, 207.558 639.986, 209.461 641.280 C 211.365 642.574, 213.873 644.840, 215.034 646.317 C 216.196 647.793, 219.251 650.214, 221.823 651.696 C 224.395 653.177, 227.850 655.388, 229.500 656.608 C 232.274 658.659, 234.729 660.043, 248.500 667.312 C 254.865 670.672, 276.342 680, 277.713 680 C 278.284 680, 281.296 681.125, 284.405 682.501 C 289.776 684.876, 310.547 690.739, 323.500 693.537 C 336.553 696.357, 390.044 698.519, 387.450 696.122 C 386.927 695.640, 377.725 693.837, 367 692.116 C 356.275 690.396, 345.250 688.602, 342.500 688.130 C 335.486 686.927, 302.914 677.692, 294.500 674.522 C 290.650 673.071, 283.900 670.591, 279.500 669.012 C 260.857 662.318, 252.268 658.723, 236.668 651.083 C 227.592 646.637, 219.770 643, 219.286 643 C 218.803 643, 215.953 641.437, 212.954 639.526 C 206.827 635.622, 206 635.377, 206 637.464" stroke="none" fill="#d4b4cd" fill-rule="evenodd"/></svg>